<svg width="210" height="150" viewBox="0 0 210 150" fill="none" xmlns="http://www.w3.org/2000/svg">
<g clip-path="url(#clip0_18_2)">
<path d="M0 22.3141C-2.15474e-06 9.99036 9.99033 1.13666e-05 22.314 9.21191e-06C34.6377 7.05716e-06 44.6281 9.99033 44.6281 22.314L44.6281 127.686C44.6281 140.01 34.6377 150 22.3141 150C9.99036 150 2.05786e-05 140.01 1.84238e-05 127.686L0 22.3141Z" fill="black"/>
<path fill-rule="evenodd" clip-rule="evenodd" d="M134.505 105.372C151.279 105.372 164.877 91.7739 164.877 75C164.877 58.226 151.279 44.6281 134.505 44.6281C117.731 44.6281 104.133 58.2261 104.133 75C104.133 91.7739 117.731 105.372 134.505 105.372ZM134.505 150C175.926 150 209.505 116.421 209.505 75C209.505 33.5786 175.926 -7.24234e-06 134.505 0C93.0833 7.24234e-06 59.5047 33.5787 59.5047 75C59.5047 116.421 93.0833 150 134.505 150Z" fill="black"/>
</g>
<defs>
<clipPath id="clip0_18_2">
<rect width="209.505" height="150" fill="white"/>
</clipPath>
</defs>
</svg>
