<svg width="385" height="276" viewBox="0 0 385 276" fill="none" xmlns="http://www.w3.org/2000/svg">
<path d="M0 41.0058C-3.9597e-06 18.359 18.3589 2.08881e-05 41.0058 1.69284e-05C63.6526 1.29687e-05 82.0116 18.3589 82.0116 41.0058L82.0116 234.644C82.0116 257.291 63.6527 275.65 41.0058 275.65C18.359 275.65 3.78165e-05 257.291 3.38568e-05 234.644L0 41.0058Z" fill="black"/>
<path fill-rule="evenodd" clip-rule="evenodd" d="M247.175 193.639C278 193.639 302.988 168.65 302.988 137.825C302.988 107 278 82.0116 247.175 82.0116C216.35 82.0116 191.361 107 191.361 137.825C191.361 168.65 216.35 193.639 247.175 193.639ZM247.175 275.65C323.294 275.65 385 213.944 385 137.825C385 61.7064 323.294 -1.3309e-05 247.175 0C171.056 1.3309e-05 109.35 61.7064 109.35 137.825C109.35 213.944 171.056 275.65 247.175 275.65Z" fill="black"/>
</svg>
